<?xml version="1.0" encoding="UTF-8"?>
<svg version="1.1" xmlns="http://www.w3.org/2000/svg" width="634" height="634">
<path d="M0 0 C209.22 0 418.44 0 634 0 C634 209.22 634 418.44 634 634 C424.78 634 215.56 634 0 634 C0 424.78 0 215.56 0 0 Z " fill="#FEFEFE" transform="translate(0,0)"/>
<path d="M0 0 C3.29267785 7.62456361 6.58413264 15.24965479 9.875 22.875 C10.37153076 24.02545807 10.86806152 25.17591614 11.37963867 26.36123657 C16.59188643 38.43957001 21.8008779 50.51922642 26.9765625 62.61328125 C27.55163292 63.95687965 27.55163292 63.95687965 28.13832092 65.32762146 C29.99023957 69.65565448 31.84021976 73.98450682 33.68823242 78.31420898 C37.15924039 86.43703672 40.66679913 94.54053719 44.26171875 102.609375 C44.59781158 103.36628128 44.93390442 104.12318756 45.28018188 104.9030304 C46.85090459 108.44037784 48.42983366 111.97344647 50.02734375 115.4987793 C50.57464022 116.72686304 51.12154065 117.95512338 51.66796875 119.18359375 C52.14516357 120.24118896 52.6223584 121.29878418 53.11401367 122.38842773 C54 125 54 125 53 128 C51.18774414 129.05566406 51.18774414 129.05566406 48.78515625 130.015625 C47.88410156 130.37640137 46.98304688 130.73717773 46.0546875 131.10888672 C45.06726563 131.4854541 44.07984375 131.86202148 43.0625 132.25 C42.04285156 132.6433252 41.02320313 133.03665039 39.97265625 133.44189453 C28.22256075 137.84639786 16.18802834 141.06118024 4 144 C3.29536621 144.17225098 2.59073242 144.34450195 1.86474609 144.52197266 C-2.39442731 145.53910573 -6.67670454 146.31916607 -11 147 C-12.5763623 147.24943359 -12.5763623 147.24943359 -14.18457031 147.50390625 C-17.93286773 148.08478572 -21.68416486 148.64015351 -25.4375 149.1875 C-26.62835205 149.36692139 -27.8192041 149.54634277 -29.04614258 149.73120117 C-35.57965415 150.64365293 -41.87262334 151.10867183 -48.46118164 151.0480957 C-49.19101509 151.04462379 -49.92084854 151.04115189 -50.67279816 151.03757477 C-52.4485537 151.02862123 -54.22428376 151.01482446 -56 151 C-56.07000815 133.0415996 -56.12294788 115.0832345 -56.15543652 97.12472725 C-56.17092093 88.78671845 -56.19204037 80.44879431 -56.22631836 72.11083984 C-56.2561727 64.84546761 -56.27556354 57.58015667 -56.28226548 50.3147248 C-56.28618451 46.46590519 -56.29542709 42.61726099 -56.31719017 38.76849747 C-56.3374929 35.14880423 -56.34384654 31.52935933 -56.33932304 27.90961456 C-56.34054702 25.94187765 -56.35672158 23.97416803 -56.3732605 22.00650024 C-56.36913651 20.84259766 -56.36501251 19.67869507 -56.36076355 18.47952271 C-56.36352893 17.46370684 -56.36629431 16.44789097 -56.36914349 15.4012928 C-56.24732614 14.60886618 -56.12550879 13.81643955 -56 13 C-52.66421581 10.77614387 -51.63590446 10.78620613 -47.75 10.6875 C-33.72431835 9.79124007 -19.29932763 6.57954192 -6.42578125 0.91796875 C-4 0 -4 0 0 0 Z " fill="#E52C27" transform="translate(383,477)"/>
<path d="M0 0 C3.47496547 0.48777998 6.44903045 1.50877566 9.65625 2.8984375 C14.84977382 5.02463235 20.0292686 6.41282628 25.5 7.625 C26.78003906 7.93050781 26.78003906 7.93050781 28.0859375 8.2421875 C37.08775843 10.2773818 45.65153007 10.96128112 55 12 C55 57.87 55 103.74 55 151 C44.77729274 151 35.57643604 150.89400304 25.625 149.375 C23.82844971 149.10550537 23.82844971 149.10550537 21.99560547 148.83056641 C3.88198583 145.99934598 -13.61043015 141.69037988 -31 135.9375 C-32.2463623 135.52612793 -33.49272461 135.11475586 -34.77685547 134.69091797 C-41.82071453 132.29071033 -48.45705092 129.5513213 -55 126 C-53.33966539 120.43299573 -51.25139171 115.23866026 -48.75 110 C-45.4763049 103.13917092 -42.54929227 96.1737045 -39.6875 89.1328125 C-37.67925187 84.19243039 -35.57709867 79.29528311 -33.46484375 74.3984375 C-32.47149956 72.09387897 -31.48472477 69.78647976 -30.50390625 67.4765625 C-28.07082831 61.75092974 -25.58363067 56.06814122 -22.9375 50.4375 C-19.96814301 44.07571141 -17.43474532 37.58243094 -15 31 C-14.34 31 -13.68 31 -13 31 C-12.89042969 30.40832031 -12.78085938 29.81664062 -12.66796875 29.20703125 C-11.72195055 24.49232264 -10.59104565 21.08587968 -8 17 C-6.94412318 14.49968368 -5.96561713 11.97423747 -4.98046875 9.4453125 C-1.992 1.992 -1.992 1.992 0 0 Z " fill="#EA0D6B" transform="translate(251,477)"/>
<path d="M0 0 C31.78164446 5.23453989 64.84170169 33.75339017 89 54 C87.36312397 58.17258919 84.30669032 60.96425073 81.1796875 64.05078125 C80.60219757 64.62781296 80.02470764 65.20484467 79.42971802 65.79936218 C78.20648633 67.01957662 76.98082895 68.23736351 75.75292969 69.45288086 C73.89728973 71.2904276 72.04961463 73.13568538 70.203125 74.98242188 C69.0082799 76.17234452 67.81298113 77.36181182 66.6171875 78.55078125 C66.07415985 79.09269608 65.5311322 79.6346109 64.97164917 80.19294739 C62.14530401 82.98549378 59.26277593 85.65994524 56.24658203 88.24682617 C51.57399699 92.29736439 47.23133742 96.65485869 42.87966919 101.04516602 C41.40068091 102.53714243 39.91839498 104.02577553 38.43530273 105.51367188 C35.28734751 108.67294765 32.1433673 111.83616023 29 115 C25.35185217 118.67190789 21.70200656 122.34209557 18.04788208 126.00805664 C16.60134931 127.46097908 15.15790833 128.91692281 13.71459961 130.37304688 C9.15136711 134.95313001 4.54699574 139.40485538 -0.37414551 143.60023499 C-2.51941848 145.44718874 -4.51676365 147.41884872 -6.5 149.4375 C-7.1703125 150.11683594 -7.840625 150.79617187 -8.53125 151.49609375 C-9.0159375 151.99238281 -9.500625 152.48867187 -10 153 C-13.50763563 151.74380523 -16.04300921 150.34298616 -18.875 147.9375 C-29.21202171 139.69188235 -41.12322237 133.6913372 -53 128 C-52.38352878 122.93387117 -50.8507247 118.7144627 -48.875 114.0625 C-48.56224121 113.31307129 -48.24948242 112.56364258 -47.92724609 111.79150391 C-45.68945383 106.482496 -43.26198211 101.28943751 -40.77148438 96.09472656 C-36.69949684 87.44062445 -33.42201441 78.44450348 -29.98095703 69.52685547 C-27.24022054 62.46696927 -24.27232918 55.54561441 -21.0625 48.6875 C-17.33317306 40.69197644 -14.13895973 32.5058408 -10.9453125 24.28515625 C-7.70169183 16.01526388 -4.01877417 7.92272621 0 0 Z " fill="#E9AB25" transform="translate(442,32)"/>
<path d="M0 0 C3.65851388 0.28723869 5.31722063 2.02132291 7.75 4.625 C10.28064221 7.31513646 12.89306047 9.80727072 15.68481445 12.22045898 C31.90028388 26.35757383 46.90792589 41.81245163 62.0625 57.0625 C65.88773899 60.91158362 69.71477127 64.75885343 73.5460186 68.60195732 C75.05241151 70.11472019 76.55571278 71.63050599 78.05885315 73.14649963 C82.70864161 77.81288301 87.39287757 82.35914199 92.40745544 86.63354492 C94.36525258 88.31339861 96.19522581 90.09512635 98 91.9375 C98.5775 92.52402344 99.155 93.11054687 99.75 93.71484375 C100.36875 94.35099609 100.36875 94.35099609 101 95 C99.7040639 97.84905441 98.33419618 99.92159788 96.12890625 102.13671875 C95.56075195 102.70914307 94.99259766 103.28156738 94.40722656 103.87133789 C93.7984668 104.47067139 93.18970703 105.07000488 92.5625 105.6875 C91.92924805 106.31325928 91.29599609 106.93901855 90.64355469 107.58374023 C85.35658249 112.75140229 79.8973808 117.5338768 74 122 C73.37174316 122.47759766 72.74348633 122.95519531 72.09619141 123.44726562 C57.88791677 134.17780363 42.95256801 143.63863358 27.0625 151.6875 C26.41845215 152.01468018 25.7744043 152.34186035 25.11083984 152.67895508 C21.768111 154.31813489 18.69212859 155.47455475 15 156 C9.64419397 143.71534031 4.4725932 131.37728302 -0.37255859 118.88110352 C-2.77915492 112.75618032 -5.50844826 106.91783747 -8.49780273 101.05737305 C-11.08235292 95.79712243 -13.24129379 90.36861215 -15.4375 84.9375 C-16.47170952 82.4026924 -17.50742449 79.86859198 -18.546875 77.3359375 C-18.81787521 76.67535843 -19.08887543 76.01477936 -19.36808777 75.33418274 C-21.54805619 70.0442599 -23.80164367 64.78808321 -26.078125 59.5390625 C-26.42025528 58.74873123 -26.76238556 57.95839996 -27.11488342 57.14411926 C-28.47135028 54.01252888 -29.82846052 50.88131541 -31.19894409 47.75582886 C-32.15268739 45.58055198 -33.09839628 43.40192759 -34.04296875 41.22265625 C-34.47026276 40.25877487 -34.47026276 40.25877487 -34.90618896 39.27542114 C-36.52066426 35.52972673 -37.49944605 32.04746912 -38 28 C-37.12859375 27.52691406 -36.2571875 27.05382812 -35.359375 26.56640625 C-22.24721023 19.33396149 -10.61179344 10.61179344 0 0 Z " fill="#FEC214" transform="translate(438,440)"/>
<path d="M0 0 C0.02332809 18.23645998 0.04097873 36.47291611 0.05181217 54.70938778 C0.05697532 63.17629939 0.06401838 71.64320175 0.07543945 80.11010742 C0.08538572 87.48717094 0.09185329 94.86422775 0.09408849 102.24129778 C0.0953957 106.14982053 0.09848217 110.05832412 0.10573006 113.96684074 C0.11248937 117.64146442 0.11461715 121.31606093 0.11310768 124.99069023 C0.11351638 126.99079611 0.11891204 128.99089898 0.12442017 130.99099731 C0.1230455 132.17035355 0.12167084 133.34970978 0.12025452 134.56480408 C0.12117631 135.59629043 0.1220981 136.62777678 0.12304783 137.69052029 C0 140 0 140 -1 141 C-2.39743518 141.16760954 -3.80204134 141.27618009 -5.20703125 141.359375 C-17.58956664 142.21477709 -29.03249945 144.16785844 -40.984375 147.48095703 C-43.63203463 148.16275504 -46.29482673 148.61416599 -49 149 C-53.72632483 138.66591355 -57.89710645 128.18766127 -61.80249023 117.515625 C-63.73380267 112.26224643 -65.78390995 107.1224029 -68.09985352 102.02709961 C-69.41417945 99.0672818 -70.51797385 96.04262401 -71.625 93 C-77.26025193 77.75046981 -83.36158635 62.67174153 -89.8125 47.75 C-98.91296052 26.68853967 -98.91296052 26.68853967 -100 19 C-96.12315913 17.80712589 -93.08378077 17 -89 17 C-89 16.34 -89 15.68 -89 15 C-87.94941406 14.74605469 -86.89882812 14.49210937 -85.81640625 14.23046875 C-76.91465919 12.10602521 -76.91465919 12.10602521 -68.1875 9.375 C-61.41565513 7.00096243 -54.18731939 5.61149625 -47 6 C-47 5.34 -47 4.68 -47 4 C-37.32371145 2.47643028 -27.64218217 1.59347238 -17.875 0.875 C-16.6893042 0.78750488 -15.5036084 0.70000977 -14.28198242 0.60986328 C-9.50773023 0.27057632 -4.78697244 -0.01954533 0 0 Z " fill="#12416F" transform="translate(307,3)"/>
<path d="M0 0 C2.95367466 1.33138791 5.03360127 2.78408966 7.31916809 5.07192993 C7.95402634 5.70259369 8.58888458 6.33325745 9.24298096 6.98303223 C9.92825867 7.67392944 10.61353638 8.36482666 11.31958008 9.07666016 C12.0501915 9.80537323 12.78080292 10.5340863 13.53355408 11.28488159 C15.95046153 13.69808131 18.36008543 16.11841447 20.76953125 18.5390625 C22.45061876 20.22134253 24.13207655 21.90325261 25.81388855 23.58480835 C29.34167845 27.11416342 32.86608118 30.64685496 36.38793945 34.18212891 C40.8884504 38.69957089 45.39545641 43.21046179 49.90482044 47.71906471 C53.38050705 51.19502425 56.85357307 54.67359227 60.32578087 58.15302658 C61.98567117 59.81608635 63.64615661 61.47855234 65.30726051 63.14039993 C67.63810431 65.47342898 69.96561568 67.80973297 72.29223633 70.14697266 C72.97144135 70.82572449 73.65064636 71.50447632 74.35043335 72.20379639 C78.20358202 76.08249016 81.87854483 80.06438948 85.43798351 84.2148037 C87.81664931 86.93333159 90.36134656 89.47016744 92.9375 92 C93.67709961 92.73283203 93.67709961 92.73283203 94.43164062 93.48046875 C95.61873229 94.65603525 96.80900498 95.82838826 98 97 C96.60525229 101.26004463 94.62699341 103.69852885 91.5 106.875 C87.4771215 111.18854892 84.01106158 115.58705245 80.75 120.5 C80.36263672 121.07991699 79.97527344 121.65983398 79.57617188 122.25732422 C76.06202915 127.6578659 73.03621235 133.32101458 70 139 C54.93270214 132.89228976 40.04667733 126.406648 25.1875 119.8125 C6.19068445 111.3844491 -12.86963774 103.12002683 -32 95 C-32.66439087 94.71795715 -33.32878174 94.43591431 -34.01330566 94.14532471 C-42.00472244 90.7537233 -49.99999006 87.37128802 -58 84 C-56.69721449 79.73748817 -55.0542834 76.00980954 -52.875 72.125 C-52.06675781 70.67480469 -52.06675781 70.67480469 -51.2421875 69.1953125 C-50.62730469 68.10863281 -50.62730469 68.10863281 -50 67 C-49.34 67 -48.68 67 -48 67 C-47.74605469 66.13890625 -47.49210937 65.2778125 -47.23046875 64.390625 C-45.93944258 60.83313066 -44.32070816 57.9536641 -42.3125 54.75 C-41.95800781 54.1842627 -41.60351562 53.61852539 -41.23828125 53.03564453 C-37.99360913 47.9006612 -34.55780156 42.92136427 -31 38 C-30.06027344 36.69289063 -30.06027344 36.69289063 -29.1015625 35.359375 C-27.08044551 32.56336336 -25.04332064 29.77982254 -23 27 C-22.23042969 25.948125 -21.46085937 24.89625 -20.66796875 23.8125 C-19.50201172 22.2346875 -19.50201172 22.2346875 -18.3125 20.625 C-17.60738281 19.66851562 -16.90226562 18.71203125 -16.17578125 17.7265625 C-13.94706815 14.93366888 -11.55057828 12.49940927 -9 10 C-7.38391606 8.24003577 -5.77934585 6.469417 -4.1875 4.6875 C-3.39730469 3.80449219 -2.60710937 2.92148438 -1.79296875 2.01171875 C-1.20128906 1.34785156 -0.60960937 0.68398437 0 0 Z " fill="#70B73A" transform="translate(89,100)"/>
<path d="M0 0 C18.25542718 0 36.08781487 2.49324427 53.875 6.4375 C54.53178741 6.5825296 55.18857483 6.7275592 55.86526489 6.87698364 C68.52749043 9.70036737 81.06435541 12.84838076 93 18 C93.71542969 18.30292969 94.43085938 18.60585938 95.16796875 18.91796875 C96.78198874 19.60416887 98.39161203 20.30070088 100 21 C99.32548519 25.38199146 97.7751658 29.2432867 96.03515625 33.2890625 C95.73074112 34.00768463 95.42632599 34.72630676 95.11268616 35.46670532 C94.10018224 37.85462189 93.08125767 40.23974557 92.0625 42.625 C90.96926172 45.19913645 89.87772778 47.77399153 88.78625488 50.34887695 C88.02304075 52.14907306 87.25927725 53.94903635 86.49499512 55.7487793 C83.83126534 62.02440742 81.19075605 68.30937135 78.56640625 74.6015625 C78.20093185 75.47774734 77.83545746 76.35393219 77.45890808 77.25666809 C76.71847122 79.03202901 75.97806903 80.80740439 75.23770142 82.58279419 C65.9748849 104.78626915 56.5168961 126.90441253 47 149 C42.23322836 148.07434157 37.47488322 147.13927335 32.75390625 146 C32.05974609 145.835 31.36558594 145.67 30.65039062 145.5 C29.29168964 145.17462353 27.93477196 144.84167648 26.58007812 144.5 C17.72914668 142.43074114 9.24280283 141.97292661 0 141 C0 94.47 0 47.94 0 0 Z " fill="#F92928" transform="translate(325,3)"/>
<path d="M0 0 C3.33983492 1.66991746 4.11637166 5.4563156 5.5625 8.75 C11.02867481 20.76272597 18.59271963 30.85170244 27 41 C21.25411014 47.92453394 15.10460494 54.40767849 8.25 60.25 C4.47267489 63.48339029 0.99318647 66.96701647 -2.5 70.5 C-9.2113693 77.28731124 -9.2113693 77.28731124 -12.875 80.375 C-16.98158784 83.85249353 -20.7165197 87.67970199 -24.5 91.5 C-28.82328437 95.86531411 -33.14676836 100.10613965 -37.84765625 104.06640625 C-41.67650918 107.50611986 -45.2392239 111.22072106 -48.85864258 114.87817383 C-52.46482056 118.5076582 -56.13863323 121.9645181 -60.046875 125.26953125 C-64.22595552 128.97219659 -68.08970603 133.01758995 -72 137 C-76.27237028 133.63558614 -79.75941238 130.14741048 -83.0625 125.8125 C-83.5280127 125.20865479 -83.99352539 124.60480957 -84.47314453 123.98266602 C-85.99351676 121.99682753 -87.49863194 120.00023885 -89 118 C-89.5151416 117.31711914 -90.0302832 116.63423828 -90.56103516 115.93066406 C-102.57605206 99.91805133 -113.00104418 83.12355815 -122.375 65.4375 C-122.95314453 64.36040771 -123.53128906 63.28331543 -124.12695312 62.17358398 C-124.64966797 61.16626221 -125.17238281 60.15894043 -125.7109375 59.12109375 C-126.17806152 58.2283374 -126.64518555 57.33558105 -127.12646484 56.41577148 C-128 54 -128 54 -127.83935547 51.77539062 C-127 50 -127 50 -123.859375 48.47265625 C-122.4951806 47.98659884 -121.12485456 47.51753088 -119.75 47.0625 C-118.2913523 46.55167803 -116.8330233 46.03994521 -115.375 45.52734375 C-114.64152344 45.27452637 -113.90804687 45.02170898 -113.15234375 44.76123047 C-108.93979725 43.27135751 -104.81483008 41.55471569 -100.671875 39.8828125 C-98 39 -98 39 -94 39 C-94 38.34 -94 37.68 -94 37 C-93.27296875 36.76925781 -92.5459375 36.53851563 -91.796875 36.30078125 C-84.35738988 33.88771749 -77.19252862 31.06148558 -70 28 C-64.57056771 25.77772074 -59.10581018 23.65446203 -53.625 21.5625 C-49.44737606 19.96359609 -45.30663625 18.30628631 -41.1875 16.5625 C-36.3041569 14.51254046 -31.38712478 12.57039448 -26.4375 10.6875 C-25.74615967 10.42074463 -25.05481934 10.15398926 -24.3425293 9.87915039 C-21.41556457 8.77687179 -19.15525095 8 -16 8 C-16 7.34 -16 6.68 -16 6 C-15.18015625 5.73445313 -14.3603125 5.46890625 -13.515625 5.1953125 C-12.43796875 4.84210938 -11.3603125 4.48890625 -10.25 4.125 C-9.18265625 3.77695312 -8.1153125 3.42890625 -7.015625 3.0703125 C-4.06935483 2.106061 -4.06935483 2.106061 -1.734375 0.8046875 C-0.87585938 0.40636719 -0.87585938 0.40636719 0 0 Z " fill="#DCA517" transform="translate(155,386)"/>
<path d="M0 0 C3.7162424 1.3601933 6.36593702 3.92430456 9.3125 6.5 C13.94122819 10.45790857 18.73600048 14.01138308 23.8125 17.375 C24.42198486 17.77912109 25.03146973 18.18324219 25.65942383 18.59960938 C29.68706646 21.22963868 33.80467043 23.64717753 38 26 C35.80663425 32.92904182 33.15296953 39.52816645 30.25 46.1875 C29.17749253 48.66888993 28.10586828 51.15064843 27.03515625 53.6328125 C26.58345818 54.67862236 26.58345818 54.67862236 26.12263489 55.74555969 C21.77561861 65.82015651 17.49078561 75.92137286 13.19549561 86.01809692 C5.85579149 103.26938715 -1.49236721 120.51703246 -8.875 137.75 C-9.1898233 138.48542023 -9.50464661 139.22084045 -9.82901001 139.97854614 C-10.69521781 142.00161676 -11.562271 144.02432239 -12.4296875 146.046875 C-12.90647949 147.15901367 -13.38327148 148.27115234 -13.87451172 149.41699219 C-14.54717973 150.96077257 -15.24690769 152.49381539 -16 154 C-21.19444134 153.37961126 -25.51533916 151.00983658 -30.125 148.6875 C-31.4409314 148.02524414 -31.4409314 148.02524414 -32.78344727 147.34960938 C-47.15239598 139.97419194 -60.45990258 131.1571409 -73 121 C-73.89460938 120.29746094 -74.78921875 119.59492187 -75.7109375 118.87109375 C-81.387794 114.35125053 -86.82086105 109.56855587 -92.1875 104.6875 C-93.19659424 103.7888623 -93.19659424 103.7888623 -94.22607422 102.87207031 C-95.15637451 102.01307129 -95.15637451 102.01307129 -96.10546875 101.13671875 C-96.66387451 100.62842529 -97.22228027 100.12013184 -97.79760742 99.59643555 C-99 98 -99 98 -99 94 C-97.70703125 92.53515625 -97.70703125 92.53515625 -95.8125 91.0625 C-91.21077515 87.27813303 -87.07832756 83.14052318 -82.92114258 78.88305664 C-80.08456726 76.00257829 -77.19024982 73.26226017 -74.125 70.625 C-69.69441152 66.79646278 -65.60108295 62.67578391 -61.5 58.5 C-56.77653144 53.69049376 -51.9993045 49.06306926 -46.88867188 44.66601562 C-43.95498933 42.07818604 -41.23069518 39.29879232 -38.5 36.5 C-35.20827505 33.12618714 -31.88952636 29.86836218 -28.3046875 26.8046875 C-22.79108637 22.04137996 -17.73789366 16.80864869 -12.625 11.625 C-10.66173429 9.63514379 -8.69516169 7.64864065 -6.7265625 5.6640625 C-5.86627441 4.79217285 -5.00598633 3.9202832 -4.11962891 3.02197266 C-2 1 -2 1 0 0 Z " fill="#FE9E23" transform="translate(195,441)"/>
<path d="M0 0 C2.65578748 1.52451898 4.10207818 3.3779237 5.98828125 5.79296875 C7.17164063 7.29537109 7.17164063 7.29537109 8.37890625 8.828125 C9.00249023 9.6327417 9.00249023 9.6327417 9.63867188 10.45361328 C10.92138788 12.09983038 12.22482089 13.72727234 13.53515625 15.3515625 C27.95113339 33.30189787 40.20358896 52.41068675 51.23828125 72.60546875 C51.8254895 73.65541016 51.8254895 73.65541016 52.42456055 74.7265625 C54.97551224 79.50996692 54.97551224 79.50996692 54.75131226 82.19464111 C53.6599501 84.72077877 52.68989978 85.05764971 50.16650391 86.08496094 C49.36701324 86.41921082 48.56752258 86.75346069 47.74380493 87.09783936 C46.86799774 87.44582581 45.99219055 87.79381226 45.08984375 88.15234375 C44.18189056 88.52723938 43.27393738 88.90213501 42.33847046 89.28839111 C39.41490974 90.49183011 36.48327636 91.67399027 33.55078125 92.85546875 C31.64395055 93.63530033 29.73769345 94.41653606 27.83203125 95.19921875 C24.03367596 96.757656 20.23244911 98.30877378 16.42919922 99.85522461 C11.36553418 101.91907998 6.32149746 104.02670345 1.28515625 106.15625 C-5.18629753 108.89252991 -11.66726208 111.60402525 -18.16015625 114.2890625 C-19.00004089 114.63650513 -19.83992554 114.98394775 -20.70526123 115.34191895 C-24.18565145 116.78121493 -27.66637069 118.21971124 -31.14752197 119.65716553 C-43.75814801 124.86020605 -43.75814801 124.86020605 -56.29296875 130.2421875 C-57.27861816 130.674104 -58.26426758 131.10602051 -59.27978516 131.55102539 C-60.9995512 132.31087446 -62.71570675 133.07897536 -64.42724609 133.85717773 C-69.749419 136.21373533 -69.749419 136.21373533 -73.07421875 135.10546875 C-74.69515802 132.54765632 -76.18110806 130.00477111 -77.63671875 127.35546875 C-83.07544395 117.77823249 -89.24769155 109.19215853 -96.76171875 101.10546875 C-99.07421875 98.10546875 -99.07421875 98.10546875 -99.26171875 95.41796875 C-97.71013928 92.39647189 -95.7848862 91.16793311 -93.07421875 89.10546875 C-91.94710206 87.85494512 -90.8448288 86.58179535 -89.76171875 85.29296875 C-87.48152191 82.62786689 -85.19119235 80.24199027 -82.51171875 77.98046875 C-77.85214815 74.03845386 -73.61514862 69.70142513 -69.34936523 65.34326172 C-66.44800507 62.3993014 -63.50500998 59.57779377 -60.36132812 56.89257812 C-56.02115419 53.1141148 -51.96145245 49.10319217 -47.91796875 45.01171875 C-47.17140015 44.26136353 -46.42483154 43.5110083 -45.65563965 42.73791504 C-43.2926985 40.36286955 -40.93304505 37.98460058 -38.57421875 35.60546875 C-35.46261229 32.46707658 -32.3475812 29.3321413 -29.23046875 26.19921875 C-28.53127319 25.49172485 -27.83207764 24.78423096 -27.11169434 24.05529785 C-23.15612494 20.08035115 -19.10204565 16.29696858 -14.83502197 12.65734863 C-11.65225963 9.85222834 -8.79503179 6.72627972 -5.9453125 3.5859375 C-2.64604728 0.13454478 -2.64604728 0.13454478 0 0 Z " fill="#559940" transform="translate(545.07421875,101.89453125)"/>
<path d="M0 0 C5.71746245 1.74673728 11.10095157 4.15615616 16.5625 6.5625 C18.63910293 7.47185669 20.71593049 8.38070057 22.79296875 9.2890625 C23.83630371 9.74571289 24.87963867 10.20236328 25.95458984 10.67285156 C30.41804993 12.61796693 34.89618751 14.52807285 39.375 16.4375 C48.12703619 20.1756691 56.84086311 23.99737133 65.54882812 27.83691406 C80.52666347 34.43989693 95.51671881 41.01203336 110.62451172 47.31323242 C115.78346392 49.4683639 120.89925394 51.71057103 126 54 C125.43360358 58.04029446 124.49014473 61.81643204 123.28588867 65.71142578 C120.15965021 75.94590131 118.72334516 86.16641014 117.56748962 96.78607178 C117.40785437 98.25165842 117.40785437 98.25165842 117.24499416 99.74685287 C117.16414609 100.49039143 117.08329802 101.23392998 117 102 C101.05208157 102.05929276 85.11673656 101.90092176 69.171875 101.59765625 C66.87697482 101.55513843 64.58207326 101.51269514 62.28717041 101.47032166 C57.52751736 101.38187368 52.76790042 101.29171409 48.00830078 101.20043945 C41.93316212 101.08419483 35.85793444 100.97361397 29.78266525 100.86443424 C25.06411482 100.77879337 20.34563805 100.68952477 15.62717438 100.59924126 C13.3866739 100.55692149 11.14614931 100.51585704 8.9056015 100.4761219 C5.77780273 100.42023955 2.65014032 100.35928505 -0.47753906 100.29711914 C-1.38368454 100.28201294 -2.28983002 100.26690674 -3.22343445 100.25134277 C-9.51610815 100.11897682 -15.73926057 99.64043951 -22 99 C-21.46389152 90.34043722 -20.56706363 81.74171492 -19.5625 73.125 C-19.44028076 72.04355713 -19.31806152 70.96211426 -19.19213867 69.84790039 C-18.53851629 64.36367307 -17.62541327 59.29366112 -16 54 C-15.39273277 51.19909358 -14.88082985 48.38327564 -14.375 45.5625 C-14.2409375 44.83095703 -14.106875 44.09941406 -13.96875 43.34570312 C-13.64275312 41.56436303 -13.320935 39.78225902 -13 38 C-12.34 38 -11.68 38 -11 38 C-10.96261719 37.40574219 -10.92523438 36.81148437 -10.88671875 36.19921875 C-10.0981386 26.25692398 -7.48375073 7.48375073 0 0 Z " fill="#0E92CA" transform="translate(25,201)"/>
<path d="M0 0 C0.47606689 1.17763916 0.95213379 2.35527832 1.44262695 3.56860352 C1.92233192 4.75524094 1.92233192 4.75524094 2.41172791 5.96585083 C3.14436562 7.77816683 3.87700103 9.59048376 4.6096344 11.40280151 C6.70536072 16.58699656 8.80113074 21.77117395 10.89697266 26.95532227 C14.86608904 36.7732069 18.83505002 46.59115392 22.80230713 56.40979004 C24.02678874 59.44022897 25.25141774 62.4706083 26.47607422 65.50097656 C28.06803583 69.44023184 29.6594227 73.37971867 31.25048828 77.31933594 C34.84502907 86.21687014 38.44825482 95.11059683 42.08203125 103.9921875 C42.70265819 105.51114032 43.32326438 107.03010161 43.94384766 108.54907227 C45.07372602 111.31420653 46.20808846 114.07743939 47.34521484 116.83959961 C47.83328613 118.03335205 48.32135742 119.22710449 48.82421875 120.45703125 C49.45976685 122.0035437 49.45976685 122.0035437 50.1081543 123.58129883 C51 126 51 126 51 128 C50.49251221 128.25579834 49.98502441 128.51159668 49.4621582 128.77514648 C35.93831306 135.63254407 23.29742438 142.75349882 12 153 C8.83404003 151.59927023 6.69987174 149.94833306 4.26049805 147.50341797 C3.18369026 146.43122513 3.18369026 146.43122513 2.08512878 145.33737183 C1.31840347 144.563461 0.55167816 143.78955017 -0.23828125 142.9921875 C-1.03727341 142.19273712 -1.83626556 141.39328674 -2.6594696 140.5696106 C-4.35046528 138.87559405 -6.03903004 137.17914797 -7.7253418 135.48046875 C-10.28714326 132.9005362 -12.85672977 130.32857039 -15.42773438 127.7578125 C-17.07338683 126.10723946 -18.71858364 124.45621198 -20.36328125 122.8046875 C-21.12393387 122.04292206 -21.88458649 121.28115662 -22.66828918 120.49630737 C-26.06166239 117.07316877 -29.37248845 113.62440515 -32.52026367 109.97314453 C-36.2506537 105.64902397 -40.25290261 101.63840955 -44.3125 97.625 C-45.08505127 96.85623535 -45.85760254 96.0874707 -46.65356445 95.29541016 C-49.09994182 92.86114235 -51.5495414 90.43015894 -54 88 C-57.23213688 84.79463822 -60.46082535 81.58585927 -63.6875 78.375 C-64.41686768 77.65393066 -65.14623535 76.93286133 -65.89770508 76.18994141 C-69.91305598 72.19360302 -73.74614859 68.10614129 -77.42529297 63.79736328 C-79.82177172 61.06203358 -82.39765969 58.5388686 -85 56 C-75.90114272 33.73575704 -35.29737608 15.94705848 -15 6 C-14.24460937 5.59265625 -13.48921875 5.1853125 -12.7109375 4.765625 C-11 4 -11 4 -8 4 C-8 3.34 -8 2.68 -8 2 C-5.09399739 0.74335022 -3.20395416 0 0 0 Z " fill="#135F92" transform="translate(190,31)"/>
<path d="M0 0 C1.01673766 0.00829614 2.03347532 0.01659227 3.08102322 0.02513981 C4.24355114 0.0321793 5.40607906 0.03921879 6.60383511 0.0464716 C7.89064175 0.05941761 9.17744839 0.07236362 10.50324917 0.08570194 C11.86298214 0.09583899 13.22271847 0.10553328 14.58245754 0.11481571 C18.28480569 0.14135425 21.98707611 0.17412182 25.68936372 0.20796561 C29.55441684 0.24225188 33.41951172 0.27086805 37.28460598 0.30007267 C44.60863117 0.35628121 51.93260407 0.41762642 59.25657219 0.48079401 C67.5925608 0.55244167 75.92859135 0.61839812 84.26463044 0.68386447 C101.41706008 0.81869771 118.56942297 0.96071722 135.72175503 1.10743046 C135.79855999 1.8081316 135.87536495 2.50883274 135.95449734 3.23076725 C136.31339575 6.46528028 136.68352892 9.69841753 137.05378628 12.93164921 C137.23463772 14.58432804 137.23463772 14.58432804 137.41914272 16.27039433 C138.42279087 24.92985142 140.2829311 33.08951626 142.73347378 41.43946171 C143.72175503 45.10743046 143.72175503 45.10743046 143.72175503 49.10743046 C136.08468438 52.10873772 128.44748061 55.10970613 120.81021023 58.1105051 C118.91356972 58.85573512 117.01694129 59.60099584 115.1203146 60.34626102 C101.19922214 65.81635047 87.27707413 71.28370913 73.35066128 76.74024296 C72.21352184 77.18585575 71.07638241 77.63146854 69.9047842 78.09058475 C64.52926422 80.19702964 59.15346548 82.30275773 53.77717495 84.40723515 C51.80553753 85.17959624 49.83393825 85.95205472 47.86238003 86.72461796 C46.92710979 87.09079227 45.99183956 87.45696659 45.02822781 87.8342371 C40.31084709 89.68482888 35.60176067 91.55376199 30.90339565 93.45215702 C29.97573391 93.82647861 29.04807217 94.20080021 28.09229946 94.58646488 C26.33503337 95.29706172 24.57898312 96.01067509 22.82435513 96.72776127 C22.04896389 97.04141636 21.27357265 97.35507145 20.47468472 97.67823124 C19.79524807 97.95530918 19.11581142 98.23238712 18.41578579 98.51786137 C16.72175503 99.10743046 16.72175503 99.10743046 14.72175503 99.10743046 C14.33113003 97.74024296 13.94050503 96.37305546 13.54988003 95.00586796 C13.17452114 93.69259525 13.17452114 93.69259525 12.79157925 92.35279179 C12.24043702 90.42313747 11.68999257 88.49328373 11.14021206 86.563241 C9.38093062 80.38886047 9.38093062 80.38886047 7.57331753 74.22852421 C1.86702487 54.89560467 -2.00584615 35.35899653 -1.27824497 15.10743046 C-1.93824497 15.10743046 -2.59824497 15.10743046 -3.27824497 15.10743046 C-3.30509909 12.79499254 -3.32457338 10.48246776 -3.34074497 8.16993046 C-3.35234653 6.88215702 -3.3639481 5.59438358 -3.37590122 4.26758671 C-3.24875685 0.15319487 -3.24875685 0.15319487 0 0 Z " fill="#428342" transform="translate(5.278244972229004,319.89256954193115)"/>
<path d="M0 0 C3.69265236 0.6464968 7.04192753 1.65534203 10.55078125 2.96875 C12.16907837 3.57130615 12.16907837 3.57130615 13.82006836 4.18603516 C14.9725708 4.61964355 16.12507324 5.05325195 17.3125 5.5 C18.51076416 5.94778809 19.70902832 6.39557617 20.94360352 6.85693359 C23.42360891 7.78421864 25.90301589 8.71310562 28.38183594 9.64355469 C31.72357678 10.89636927 35.06811443 12.14128691 38.4140625 13.3828125 C48.40300058 17.09658677 58.33759933 20.90955751 68.21484375 24.91064453 C77.50658734 28.64906197 86.91450695 32.07119563 96.3125 35.53125 C102.53293208 37.82261008 108.74019908 40.14682989 114.9375 42.5 C115.80109131 42.82613281 116.66468262 43.15226562 117.55444336 43.48828125 C118.74759155 43.94267578 118.74759155 43.94267578 119.96484375 44.40625 C120.6518335 44.66728516 121.33882324 44.92832031 122.04663086 45.19726562 C124.08734993 46.03589633 126.03922533 46.98989566 128 48 C125.61018185 56.27933253 121.75994914 63.63860169 117.6875 71.1875 C117.33507233 71.84485138 116.98264465 72.50220276 116.61953735 73.17947388 C107.37651481 90.38348024 97.11190223 106.8989658 85.21972656 122.40869141 C84.01819933 123.97625636 82.83316856 125.55642134 81.6484375 127.13671875 C77.66035185 132.33573223 77.66035185 132.33573223 76 134 C71.93566621 134 71.14496785 132.63761272 68.1875 129.875 C67.43871582 129.17745605 67.43871582 129.17745605 66.67480469 128.46582031 C59.92964072 122.1051974 53.42998624 115.48122283 46.91870117 108.88232422 C42.34932626 104.26949334 37.74220205 99.80880637 32.80957031 95.58691406 C29.33626695 92.54097884 26.15777785 89.19911894 22.93359375 85.89453125 C20.15113183 83.07105023 17.31819278 80.37941037 14.3046875 77.80249023 C9.94433317 74.0049415 5.85354927 69.98112829 1.78125 65.87890625 C1.03790405 65.13414536 0.29455811 64.38938446 -0.47131348 63.62205505 C-2.81659301 61.27123255 -5.15834836 58.91693569 -7.5 56.5625 C-9.10132961 54.95614801 -10.70288998 53.35002603 -12.3046875 51.74414062 C-16.20579473 47.83208015 -20.1040242 43.91717048 -24 40 C-19.14289976 31.43511337 -19.14289976 31.43511337 -17 29 C-16.34 29 -15.68 29 -15 29 C-14.88068115 28.42113037 -14.7613623 27.84226074 -14.63842773 27.24584961 C-13.96802884 24.88753244 -13.05644898 23.15712978 -11.78515625 21.06640625 C-11.34623047 20.33486328 -10.90730469 19.60332031 -10.45507812 18.84960938 C-9.99552734 18.09486328 -9.53597656 17.34011719 -9.0625 16.5625 C-5.04430251 10.02581026 -5.04430251 10.02581026 -2 3 C-1.34 3 -0.68 3 0 3 C0 2.01 0 1.02 0 0 Z " fill="#11C3E1" transform="translate(477,386)"/>
<path d="M0 0 C9.98801654 24.54930072 16.10246291 50.61092447 19.8125 76.8125 C19.93657227 77.67705811 20.06064453 78.54161621 20.18847656 79.43237305 C20.77661982 83.91761595 21.05624251 88.28925006 21.0300293 92.81518555 C21.02569382 93.79061813 21.02135834 94.76605072 21.01689148 95.77104187 C21.01131729 96.50659805 21.0057431 97.24215424 21 98 C11.68771059 98.17887372 2.37520195 98.34420195 -6.9375 98.5 C-7.64703197 98.51187725 -8.35656395 98.5237545 -9.08759689 98.53599167 C-34.24654482 98.95303456 -59.40028623 99.08904592 -84.5625 99.0625 C-85.37977947 99.06164398 -86.19705894 99.06078796 -87.03910446 99.05990601 C-97.02609369 99.04865572 -107.01304535 99.02879364 -117 99 C-117.13575439 98.16339844 -117.27150879 97.32679688 -117.41137695 96.46484375 C-117.9248695 93.32521605 -118.44573781 90.1869217 -118.97143555 87.04931641 C-119.19634811 85.69790904 -119.41841877 84.3460252 -119.63745117 82.99365234 C-120.82776896 75.65652268 -122.10786145 68.85789359 -125 62 C-125.51171875 59.25 -125.51171875 59.25 -125.6875 57 C-125.75324219 56.236875 -125.81898438 55.47375 -125.88671875 54.6875 C-125.92410156 54.130625 -125.96148437 53.57375 -126 53 C-119.40045034 49.38761492 -112.53112401 46.49690588 -105.5625 43.6875 C-104.67401367 43.32591797 -103.78552734 42.96433594 -102.87011719 42.59179688 C-102.02739258 42.25599609 -101.18466797 41.92019531 -100.31640625 41.57421875 C-99.55787354 41.27088623 -98.79934082 40.96755371 -98.01782227 40.6550293 C-96 40 -96 40 -93 40 C-93 39.34 -93 38.68 -93 38 C-92.28199219 37.731875 -91.56398438 37.46375 -90.82421875 37.1875 C-83.19345417 34.29864268 -75.67048408 31.20641815 -68.16186523 28.01586914 C-63.21694684 25.91899519 -58.25116839 23.89586484 -53.25 21.9375 C-48.16840763 19.93002487 -43.23509114 17.73538684 -38.3125 15.375 C-32.89422477 12.77877234 -27.45779738 10.69703431 -21.72265625 8.90625 C-18.33132824 7.7774292 -15.15286104 6.31803103 -11.9140625 4.81640625 C-9.64808595 3.84989788 -7.44141661 3.3150215 -5 3 C-5 2.34 -5 1.68 -5 1 C-2 0 -2 0 0 0 Z " fill="#CA2B25" transform="translate(608,203)"/>
<path d="M0 0 C0.35102959 12.0489399 -0.75812589 23.42517502 -2.59863281 35.33056641 C-2.96125811 37.74233345 -3.28272896 40.15440181 -3.5859375 42.57421875 C-4.92938506 52.76821784 -7.30496507 62.63692983 -9.9375 72.5625 C-10.27354248 73.83544922 -10.60958496 75.10839844 -10.95581055 76.41992188 C-12.88070353 83.4954056 -15.11181687 90.26156401 -18 97 C-24.37665144 94.94213304 -30.63466915 92.6566118 -36.875 90.21875 C-37.8171637 89.85272171 -38.75932739 89.48669342 -39.7300415 89.10957336 C-42.8207918 87.90833691 -45.9103799 86.70414 -49 85.5 C-51.17145882 84.65560991 -53.34300986 83.81145695 -55.51464844 82.9675293 C-60.04594539 81.20635958 -64.57684029 79.4441615 -69.10742188 77.68115234 C-79.11023391 73.78930403 -89.11657043 69.90654659 -99.12353516 66.02539062 C-102.15424013 64.84964939 -105.18456903 63.67294336 -108.21484375 62.49609375 C-120.79125869 57.61469952 -133.38708372 52.78628946 -146 48 C-145.12060547 40.29199219 -145.12060547 40.29199219 -144.03515625 37.6640625 C-142.37213908 33.38414662 -142.01451029 28.91170523 -141.4375 24.375 C-141.31181641 23.44042969 -141.18613281 22.50585938 -141.05664062 21.54296875 C-140.29207253 15.73865598 -139.70525565 9.94208634 -139.26586914 4.10400391 C-139 2 -139 2 -138 1 C-136.52943059 0.89219995 -135.05375586 0.85318119 -133.57928467 0.84178162 C-132.14606117 0.82709839 -132.14606117 0.82709839 -130.68388367 0.81211853 C-129.09770988 0.80348534 -129.09770988 0.80348534 -127.47949219 0.79467773 C-125.81811974 0.77982834 -125.81811974 0.77982834 -124.1231842 0.76467896 C-120.43110333 0.73289695 -116.73901005 0.70821248 -113.046875 0.68359375 C-110.47544023 0.66300999 -107.90400874 0.64201315 -105.33258057 0.62062073 C-99.91851546 0.57655625 -94.50444133 0.53552788 -89.09033203 0.49731445 C-81.52977556 0.4439447 -73.96928104 0.38410871 -66.40878439 0.32291877 C-60.47565831 0.27515558 -54.54251728 0.22929332 -48.609375 0.18359375 C-46.75229038 0.16925702 -46.75229038 0.16925702 -44.8576889 0.15463066 C-29.90482284 0.04116747 -14.95330401 -0.0266389 0 0 Z " fill="#FB4320" transform="translate(630,320)"/>
<path d="M0 0 C0 4.03662358 -1.45631719 4.91201059 -4.1875 7.8125 C-8.15266066 12.07719576 -8.15266066 12.07719576 -11.9375 16.5 C-14 19 -14 19 -16 21 C-16.33 19.35 -16.66 17.7 -17 16 C-16.52691406 15.59910156 -16.05382812 15.19820312 -15.56640625 14.78515625 C-10.11819815 10.10160893 -5.02642997 5.13114726 0 0 Z " fill="#FDA942" transform="translate(113,519)"/>
<path d="M0 0 C0 3.88433166 -1.17079686 4.67605496 -3.75 7.5 C-4.44609375 8.2734375 -5.1421875 9.046875 -5.859375 9.84375 C-7.80108592 11.79963399 -9.74930748 13.41843228 -12 15 C-12.66 14.67 -13.32 14.34 -14 14 C-9.67106815 8.81580806 -5.23435005 4.27293882 0 0 Z " fill="#66A453" transform="translate(466,177)"/>
<path d="M0 0 C0 3 0 3 -1.35546875 4.61328125 C-2.26232422 5.45439453 -2.26232422 5.45439453 -3.1875 6.3125 C-5.53594295 8.54281202 -7.65419402 10.74352607 -9.625 13.3125 C-12.03235362 16.03661067 -13.55226002 17.01493143 -17 18 C-11.72898586 11.58930713 -5.90871848 5.81409488 0 0 Z " fill="#6AA65A" transform="translate(513,131)"/>
<path d="M0 0 C0.33 0.66 0.66 1.32 1 2 C-0.328125 4.4609375 -0.328125 4.4609375 -2.25 7.375 C-2.87390625 8.33148438 -3.4978125 9.28796875 -4.140625 10.2734375 C-7.57946909 15.31611223 -7.57946909 15.31611223 -9 17 C-9.66 17 -10.32 17 -11 17 C-11.33 17.99 -11.66 18.98 -12 20 C-12.33 19.34 -12.66 18.68 -13 18 C-12.22076172 16.93072266 -12.22076172 16.93072266 -11.42578125 15.83984375 C-7.59339143 10.57650616 -3.77314205 5.305981 0 0 Z " fill="#8BC461" transform="translate(71,120)"/>
<path d="M0 0 C0.33 0.99 0.66 1.98 1 3 C-3.35842441 7.59687924 -7.74276241 11.45941142 -13 15 C-11.38989473 10.92623969 -8.46177729 8.23492931 -5.375 5.25 C-4.859375 4.74339844 -4.34375 4.23679688 -3.8125 3.71484375 C-2.54616661 2.47196098 -1.2736856 1.23534724 0 0 Z " fill="#6AA75A" transform="translate(481,162)"/>
<path d="M0 0 C0.33 0.99 0.66 1.98 1 3 C-1.64 5.64 -4.28 8.28 -7 11 C-7.99 10.67 -8.98 10.34 -10 10 C-6.7 6.7 -3.4 3.4 0 0 Z " fill="#64A253" transform="translate(539,106)"/>
<path d="M0 0 C5.61 0.33 11.22 0.66 17 1 C17 1.33 17 1.66 17 2 C11.06 2.495 11.06 2.495 5 3 C5 2.67 5 2.34 5 2 C3.35 1.67 1.7 1.34 0 1 C0 0.67 0 0.34 0 0 Z " fill="#F51515" transform="translate(326,3)"/>
<path d="M0 0 C0.33 0.66 0.66 1.32 1 2 C-2.85756507 4.15305957 -5.55129785 5.39253254 -10 5 C-9 3 -9 3 -6.93359375 2.1484375 C-5.69802734 1.76558594 -5.69802734 1.76558594 -4.4375 1.375 C-3.61121094 1.11460937 -2.78492187 0.85421875 -1.93359375 0.5859375 C-1.29550781 0.39257812 -0.65742187 0.19921875 0 0 Z " fill="#E1B142" transform="translate(95,410)"/>
<path d="M0 0 C0.6875 1.6875 0.6875 1.6875 1 4 C-0.25 6.6875 -0.25 6.6875 -2 9 C-2.99 9.33 -3.98 9.66 -5 10 C-3.33333333 6.66666667 -1.66666667 3.33333333 0 0 Z " fill="#40CBE5" transform="translate(470,399)"/>
<path d="M0 0 C0.66 0.66 1.32 1.32 2 2 C1.7578125 4.1640625 1.7578125 4.1640625 1.125 6.625 C0.92132813 7.44226563 0.71765625 8.25953125 0.5078125 9.1015625 C0.34023437 9.72804687 0.17265625 10.35453125 0 11 C-0.66 11 -1.32 11 -2 11 C-1.34 7.37 -0.68 3.74 0 0 Z " fill="#42A2D2" transform="translate(12,239)"/>
<path d="M0 0 C-3.42346555 3.14958831 -6.44262737 3.56179109 -11 4 C-10 2 -10 2 -7.75 0.875 C-4.98386705 -0.00513321 -2.87951649 -0.1645438 0 0 Z " fill="#D14C48" transform="translate(573,219)"/>
<path d="M0 0 C-1 3 -1 3 -2.875 4.25 C-5 5 -5 5 -8 4 C-7.01 3.67 -6.02 3.34 -5 3 C-5 2.34 -5 1.68 -5 1 C-2 0 -2 0 0 0 Z " fill="#CF403D" transform="translate(608,203)"/>
<path d="M0 0 C-0.99 0 -1.98 0 -3 0 C-3 0.66 -3 1.32 -3 2 C-4.98 2.33 -6.96 2.66 -9 3 C-8.67 2.01 -8.34 1.02 -8 0 C-5.04215769 -1.22393475 -3.00272755 -0.96516243 0 0 Z " fill="#49648A" transform="translate(243,13)"/>
</svg>
